<?xml version="1.0" encoding="iso-8859-1"?>
<!-- Generator: Adobe Illustrator 19.0.0, SVG Export Plug-In . SVG Version: 6.00 Build 0)  -->
<svg version="1.1" id="Layer_1" xmlns="http://www.w3.org/2000/svg" xmlns:xlink="http://www.w3.org/1999/xlink" x="0px" y="0px"
	 viewBox="0 0 512 512" style="enable-background:new 0 0 512 512;" xml:space="preserve">
<g>
	<g>
		<g>
			<path d="M486.4,98.133H341.333v-25.6c0.005-18.846-15.268-34.128-34.114-34.133c-0.006,0-0.013,0-0.019,0h-42.667v-8.533
				c0-4.713-3.82-8.533-8.533-8.533s-8.533,3.82-8.533,8.533V38.4H204.8c-18.846-0.005-34.128,15.268-34.133,34.114
				c0,0.006,0,0.013,0,0.019v25.6H25.6c-14.121,0.041-25.559,11.479-25.6,25.6V422.4c0.042,14.121,11.479,25.558,25.6,25.6v8.533
				c0.042,14.121,11.479,25.558,25.6,25.6h49.323c4.815,5.407,11.704,8.51,18.944,8.533h273.067
				c7.24-0.024,14.129-3.127,18.944-8.533H460.8c14.121-0.042,25.558-11.479,25.6-25.6V448c14.121-0.042,25.558-11.479,25.6-25.6
				V123.733C511.959,109.612,500.521,98.174,486.4,98.133z M460.8,140.8c4.713,0,8.533,3.82,8.533,8.533s-3.82,8.533-8.533,8.533
				H281.6c-4.713,0-8.533-3.82-8.533-8.533s3.82-8.533,8.533-8.533H460.8z M469.333,183.467c0,4.713-3.82,8.533-8.533,8.533H281.6
				c-4.713,0-8.533-3.82-8.533-8.533s3.82-8.533,8.533-8.533h179.2C465.513,174.933,469.333,178.754,469.333,183.467z
				 M187.733,72.533c0.011-9.421,7.646-17.056,17.067-17.067h102.4c9.421,0.011,17.056,7.645,17.067,17.067v25.6H187.733V72.533z
				 M145.067,149.333c0.014-4.707,3.826-8.52,8.533-8.533c42.389,0.064,76.736,34.411,76.8,76.8
				c-0.014,4.707-3.826,8.52-8.533,8.533H153.6c-4.707-0.014-8.52-3.826-8.533-8.533V149.333z M93.867,465.067H51.2
				c-4.707-0.014-8.52-3.826-8.533-8.533V448h51.2V465.067z M50.261,285.045c-5.001-10.393-7.597-21.778-7.595-33.312
				c0.064-42.389,34.411-76.736,76.8-76.8c4.707,0.014,8.52,3.826,8.533,8.533V243.2h59.733c4.707,0.014,8.52,3.826,8.533,8.533
				c-0.03,25.7-12.903,49.685-34.304,63.915c-1.451,0.939-2.901,1.963-4.437,2.817c-1.536,0.852-3.157,1.707-4.779,2.474
				C114.534,339.327,68.65,323.257,50.261,285.045z M170.667,456.533h-34.133c-4.713,0-8.533-3.82-8.533-8.533
				s3.82-8.533,8.533-8.533h34.133c4.713,0,8.533,3.82,8.533,8.533S175.38,456.533,170.667,456.533z M238.933,456.533H204.8
				c-4.713,0-8.533-3.82-8.533-8.533s3.82-8.533,8.533-8.533h34.133c4.713,0,8.533,3.82,8.533,8.533
				S243.646,456.533,238.933,456.533z M307.2,456.533h-34.133c-4.713,0-8.533-3.82-8.533-8.533s3.821-8.533,8.533-8.533H307.2
				c4.713,0,8.533,3.82,8.533,8.533S311.913,456.533,307.2,456.533z M375.467,456.533h-34.133c-4.713,0-8.533-3.82-8.533-8.533
				s3.821-8.533,8.533-8.533h34.133c4.713,0,8.533,3.82,8.533,8.533S380.18,456.533,375.467,456.533z M469.333,456.533
				c-0.014,4.707-3.826,8.52-8.533,8.533h-42.667V448h51.2V456.533z M448,294.4c-3.378-0.026-6.726-0.632-9.899-1.792
				l-33.195,49.835c3.008,4.784,4.633,10.307,4.693,15.957c0,16.495-13.372,29.867-29.867,29.867
				c-16.495,0-29.867-13.372-29.867-29.867c-0.016-2.36,0.271-4.711,0.853-6.998l-41.472-35.498
				c-9.176,5.492-20.637,5.459-29.781-0.085l-35.243,29.355c2.12,4.087,3.232,8.622,3.243,13.227
				c0.03,16.495-13.317,29.891-29.812,29.922c-16.495,0.03-29.891-13.317-29.922-29.812c-0.018-9.974,4.944-19.3,13.227-24.857
				c1.142-0.842,2.373-1.557,3.669-2.133c1.319-0.65,2.689-1.192,4.096-1.622c2.875-0.888,5.865-1.348,8.875-1.365
				c5.262,0.037,10.417,1.481,14.933,4.181l35.243-29.355c-2.12-4.087-3.232-8.622-3.243-13.227
				c-0.169-16.495,13.065-30.004,29.56-30.173s30.004,13.065,30.173,29.56c0.05,4.872-1.093,9.682-3.328,14.011l38.571,33.023
				c5.503-5.106,12.718-7.967,20.224-8.021c4.182,0.004,8.314,0.906,12.117,2.646l32.512-48.641
				c-4.011-5.147-6.202-11.48-6.229-18.005c0-16.495,13.372-29.867,29.867-29.867c16.495,0,29.867,13.372,29.867,29.867
				S464.495,294.4,448,294.4z"/>
			<path d="M162.133,158.465v50.602h50.603C208.9,182.872,188.328,162.301,162.133,158.465z"/>
			<path d="M217.635,345.6c-0.012,0-0.024,0-0.035,0c-7.069,0-12.8,5.731-12.8,12.8c0,7.069,5.731,12.8,12.8,12.8
				c7.069,0,12.8-5.731,12.8-12.8C230.41,351.341,224.695,345.61,217.635,345.6z"/>
			<path d="M178.603,260.267h-59.136c-4.707-0.014-8.52-3.826-8.533-8.533v-59.135c-32.655,4.718-55.303,35.014-50.586,67.669
				c4.718,32.655,35.014,55.303,67.669,50.586C154.227,307.066,174.816,286.477,178.603,260.267z"/>
			<path d="M294.435,277.333c-0.012,0-0.024,0-0.035,0c-7.069,0-12.8,5.731-12.8,12.8c0,7.069,5.731,12.8,12.8,12.8
				c7.069,0,12.8-5.731,12.8-12.8C307.21,283.074,301.495,277.343,294.435,277.333z"/>
			<path d="M379.733,345.6c-4.815,0.03-9.217,2.724-11.435,6.998c-0.864,1.815-1.329,3.793-1.365,5.802
				c0,7.069,5.731,12.8,12.8,12.8c7.069,0,12.8-5.731,12.8-12.8c0.034-3.503-1.424-6.854-4.011-9.217
				C386.167,346.897,383.016,345.612,379.733,345.6z"/>
			<path d="M448.035,251.733c-0.012,0-0.024,0-0.035,0c-7.069,0-12.8,5.731-12.8,12.8s5.731,12.8,12.8,12.8
				c7.069,0,12.8-5.731,12.8-12.8C460.81,257.474,455.095,251.743,448.035,251.733z"/>
		</g>
	</g>
</g>
<g>
</g>
<g>
</g>
<g>
</g>
<g>
</g>
<g>
</g>
<g>
</g>
<g>
</g>
<g>
</g>
<g>
</g>
<g>
</g>
<g>
</g>
<g>
</g>
<g>
</g>
<g>
</g>
<g>
</g>
</svg>
