<?xml version="1.0" encoding="iso-8859-1"?>
<!-- Generator: Adobe Illustrator 19.0.0, SVG Export Plug-In . SVG Version: 6.00 Build 0)  -->
<svg version="1.1" id="Capa_1" xmlns="http://www.w3.org/2000/svg" xmlns:xlink="http://www.w3.org/1999/xlink" x="0px" y="0px"
	 viewBox="0 0 468.293 468.293" style="enable-background:new 0 0 468.293 468.293;" xml:space="preserve">
<path style="fill:#E1E6E9;" d="M0,349.811V62.817c0-3.448,2.795-6.244,6.244-6.244h401.69c3.448,0,6.244,2.795,6.244,6.244v286.995
	c0,3.448-2.796,6.244-6.244,6.244H6.244C2.795,356.055,0,353.26,0,349.811z"/>
<rect x="15.922" y="72.492" style="fill:#27A2DB;" width="382.314" height="267.62"/>
<polygon style="fill:#2D93BA;" points="398.248,340.124 15.93,340.124 398.248,72.502 "/>
<g>
	<polygon style="fill:#D5D6DB;" points="156.963,356.055 257.215,356.055 274.842,393.771 139.335,393.771 	"/>
	<path style="fill:#D5D6DB;" d="M132.927,393.771H281.25c3.448,0,6.244,2.796,6.244,6.244v5.461c0,3.448-2.795,6.244-6.244,6.244
		H132.927c-3.448,0-6.244-2.796-6.244-6.244v-5.461C126.684,396.566,129.479,393.771,132.927,393.771z"/>
</g>
<g>
	<path style="fill:#64798A;" d="M462.049,411.72H350.283c-3.448,0-6.244-2.796-6.244-6.244v-24.95h124.253v24.95
		C468.293,408.924,465.497,411.72,462.049,411.72z"/>
	<path style="fill:#64798A;" d="M468.293,232.415H344.039v-19.857c0-3.448,2.796-6.244,6.244-6.244h111.766
		c3.448,0,6.244,2.795,6.244,6.244V232.415z"/>
</g>
<rect x="344.039" y="232.417" style="fill:#E1E6E9;" width="124.254" height="148.112"/>
<circle style="fill:#D5D6DB;" cx="406.166" cy="396.987" r="10.352"/>
<g>
	<circle style="fill:#E1E6E9;" cx="388.908" cy="219.367" r="5.176"/>
	<circle style="fill:#E1E6E9;" cx="406.166" cy="219.367" r="5.176"/>
	<circle style="fill:#E1E6E9;" cx="423.399" cy="219.367" r="5.176"/>
</g>
<g>
</g>
<g>
</g>
<g>
</g>
<g>
</g>
<g>
</g>
<g>
</g>
<g>
</g>
<g>
</g>
<g>
</g>
<g>
</g>
<g>
</g>
<g>
</g>
<g>
</g>
<g>
</g>
<g>
</g>
</svg>
