<?xml version="1.0" encoding="iso-8859-1"?>
<!-- Generator: Adobe Illustrator 19.0.0, SVG Export Plug-In . SVG Version: 6.00 Build 0)  -->
<svg version="1.1" id="Capa_1" xmlns="http://www.w3.org/2000/svg" xmlns:xlink="http://www.w3.org/1999/xlink" x="0px" y="0px"
	 viewBox="0 0 512 512" style="enable-background:new 0 0 512 512;" xml:space="preserve">
<g>
	<g>
		<path d="M465.335,228.084L441.346,90.868c-0.693-3.966-2.932-7.493-6.227-9.806c-3.295-2.314-7.374-3.225-11.337-2.531
			l-367.09,64.175c-8.258,1.443-13.781,9.307-12.338,17.564l3.099,17.727l-34.89,6.101c-3.965,0.693-7.493,2.932-9.806,6.227
			c-2.314,3.294-3.225,7.371-2.531,11.337l12.563,71.86c1.288,7.373,7.696,12.567,14.933,12.567c0.867,0,1.749-0.075,2.632-0.23
			l34.89-6.1l3.099,17.728c0.693,3.965,2.932,7.493,6.227,9.806c2.572,1.807,5.622,2.758,8.723,2.758
			c0.87,0,1.745-0.075,2.614-0.227l180.938-31.633V412.23l87.201-87.201v-62.081l98.95-17.299
			C461.254,244.206,466.777,236.341,465.335,228.084z M190.737,236.134L131.21,246.54c-0.883,0.155-1.764,0.231-2.632,0.231
			c-7.236,0-13.644-5.194-14.934-12.567c-1.443-8.257,4.08-16.122,12.338-17.565l59.527-10.406
			c8.253-1.447,16.122,4.08,17.564,12.337C204.517,226.826,198.995,234.69,190.737,236.134z"/>
	</g>
</g>
<g>
	<g>
		<path d="M496.822,346.493H375.511l-87.201,87.202h208.511c8.382,0,15.178-6.796,15.178-15.178v-56.846
			C512,353.289,505.204,346.493,496.822,346.493z"/>
	</g>
</g>
<g>
</g>
<g>
</g>
<g>
</g>
<g>
</g>
<g>
</g>
<g>
</g>
<g>
</g>
<g>
</g>
<g>
</g>
<g>
</g>
<g>
</g>
<g>
</g>
<g>
</g>
<g>
</g>
<g>
</g>
</svg>
